<?xml version="1.0" encoding="UTF-8"?>
<svg width="18px" height="19px" viewBox="0 0 18 19" version="1.1" xmlns="http://www.w3.org/2000/svg" xmlns:xlink="http://www.w3.org/1999/xlink">
    <!-- Generator: Sketch 53.2 (72643) - https://sketchapp.com -->
    <title>Group 2</title>
    <desc>Created with Sketch.</desc>
    <g id="Channers-in-items-list" stroke="none" stroke-width="1" fill="none" fill-rule="evenodd">
        <g id="02-Admin-Departments" transform="translate(-17.000000, -197.000000)" fill="#fff" fill-rule="nonzero">
            <g id="Group-2" transform="translate(17.000000, 197.000000)">
                <path d="M16.1379315,5.38632054 C17.1969829,5.59240023 18,6.55545214 18,7.71650224 C18,8.87485855 17.1995693,9.83656356 16.1431031,10.0453372 L16.1431031,14.3137452 C16.1431031,14.700313 15.8754308,15.0505136 15.5068965,15.0855337 C15.0724136,15.1555739 14.7387926,14.8053731 14.705172,14.3837853 C12.3995689,12.1047867 9.12413813,11.2279381 7.15215488,10.8763904 L7.15215488,11.5781387 L5.64827625,11.5781387 L6.416379,17.7174269 L6.15000038,17.787467 L5.21379338,18.0326075 L4.946121,18.1026477 L3.07499963,11.5781387 L2.67413738,11.5781387 C1.77155213,11.5781387 1.03577625,10.8063503 1.03577625,9.85946138 L1.03577625,9.1927331 L0.53534475,9.1927331 C0.23405175,9.1927331 8.17124146e-14,8.94759259 8.17124146e-14,8.63106494 L8.17124146e-14,6.49214672 C8.17124146e-14,6.17561908 0.23405175,5.93047857 0.53534475,5.93047857 L1.00215563,5.93047857 L1.00215563,5.22873016 C1.00215563,4.28184136 1.7379315,3.51005283 2.64051675,3.51005283 L7.1857755,3.51005283 L7.1857755,4.21180112 C9.15775875,3.86025347 12.4668101,2.9834048 14.7387926,0.704406204 C14.7724133,0.282818423 15.1060343,-0.0323622109 15.5405171,0.00265779445 C15.9090514,0.037677917 16.1379315,0.261267614 16.1379315,0.646488376 L16.1379315,5.17215935 L16.1379315,5.38632054 Z M2.740086,9.78942125 L5.44655137,9.78942125 L5.44655137,5.26375028 L2.740086,5.26375028 L2.740086,9.78942125 Z" id="Combined-Shape"></path>
            </g>
        </g>
    </g>
</svg>