<?xml version="1.0" encoding="UTF-8"?>
<svg width="18px" height="19px" viewBox="0 0 18 19" version="1.1" xmlns="http://www.w3.org/2000/svg" xmlns:xlink="http://www.w3.org/1999/xlink">
    <!-- Generator: Sketch 53.2 (72643) - https://sketchapp.com -->
    <title>Combined Shape</title>
    <desc>Created with Sketch.</desc>
    <g id="Channers-in-items-list" stroke="none" stroke-width="1" fill="none" fill-rule="evenodd">
        <g id="02-Admin-Departments" transform="translate(-17.000000, -114.000000)" fill="#fff" fill-rule="nonzero">
            <path d="M31.5779993,129.428571 C31.3648438,129.470595 31.1487377,129.494878 30.9326316,129.501053 C31.3621053,129.804211 31.7663158,130.157895 32.12,130.536842 C32.2210526,130.637895 32.3221053,130.738947 32.3978947,130.890526 C32.5242105,131.117895 32.5242105,131.395789 32.4231579,131.623158 C32.3221053,131.850526 32.1452632,132.002105 31.9178947,132.103158 C31.6652632,132.204211 31.3621053,132.153684 31.1347368,132.027368 C30.9831579,131.926316 30.9073684,131.8 30.7810526,131.673684 C30.1242105,131.016842 29.3410526,130.486316 28.5073684,130.132632 C27.2189474,129.576842 25.7284211,129.425263 24.3642105,129.753684 C23.6821053,129.905263 23.0505263,130.183158 22.4694737,130.562105 C21.9642105,130.865263 21.5094737,131.244211 21.1052632,131.698947 C21.0042105,131.8 20.9536842,131.901053 20.8526316,131.976842 C20.6,132.178947 20.2463158,132.229474 19.9684211,132.103158 C19.7410526,132.002105 19.5389474,131.8 19.4884211,131.547368 C19.4126316,131.294737 19.4631579,130.991579 19.64,130.789474 C20.0189474,130.309474 20.4736842,129.905263 20.9536842,129.551579 C20.6865216,129.536737 20.4193589,129.495734 20.1573194,129.428571 L20,129.428571 C18.3431458,129.428571 17,128.085426 17,126.428571 L17,117 C17,115.343146 18.3431458,114 20,114 L32,114 C33.6568542,114 35,115.343146 35,117 L35,126.428571 C35,128.085426 33.6568542,129.428571 32,129.428571 L31.5779993,129.428571 Z M20.7142857,115.714286 C19.6097162,115.714286 18.7142857,116.609716 18.7142857,117.714286 L18.7142857,123.142857 C18.7142857,124.247427 19.6097162,125.142857 20.7142857,125.142857 L31.2857143,125.142857 C32.3902838,125.142857 33.2857143,124.247427 33.2857143,123.142857 L33.2857143,117.714286 C33.2857143,116.609716 32.3902838,115.714286 31.2857143,115.714286 L20.7142857,115.714286 Z M24.1621053,118.041857 C25.1221053,117.991331 26.1073684,117.991331 27.0673684,118.016594 C27.5726316,118.016594 28.0778947,118.041857 28.5831579,118.092384 C28.76,118.117647 28.9368421,118.117647 29.1389474,118.168173 C29.24,118.547121 29.24,118.951331 29.2652632,119.330278 C29.2905263,119.911331 29.2905263,120.492384 29.2652632,121.048173 C29.24,121.427121 29.2147368,121.806068 29.1389474,122.159752 C28.6589474,122.210278 28.2042105,122.210278 27.7242105,122.210278 C26.9663158,122.210278 26.2084211,122.210278 25.4505263,122.185015 C25.2484211,122.185015 25.0463158,122.159752 24.8694737,122.134489 C24.2631579,122.589226 23.6821053,123.043963 23.0757895,123.498699 C23.0757895,123.448173 23.0757895,123.372384 23.0757895,123.321857 C23,122.361857 23,121.376594 23,120.416594 C23,119.658699 23,118.900805 23.0757895,118.117647 C23.4294737,118.092384 23.7831579,118.067121 24.1621053,118.041857 Z" id="Combined-Shape"></path>
        </g>
    </g>
</svg>