<?xml version="1.0" encoding="UTF-8"?>
<svg width="16px" height="16px" viewBox="0 0 16 16" version="1.1" xmlns="http://www.w3.org/2000/svg" xmlns:xlink="http://www.w3.org/1999/xlink">
    <!-- Generator: Sketch 56 (81588) - https://sketch.com -->
    <title>Combined Shape</title>
    <desc>Created with Sketch.</desc>
    <g id="Symbols" stroke="none" stroke-width="1" fill="none" fill-rule="evenodd">
        <g id="Group-2" transform="translate(-4.000000, -244.000000)" fill="#FFFFFF">
            <g id="Group" transform="translate(0.000000, 240.000000)">
                <path d="M5.55555556,8 C4.69688889,8 4,7.104 4,6 C4,4.896 4.69688889,4 5.55555556,4 L9.44444444,4 C10.3031111,4 11,4.896 11,6 C11,7.104 10.3031111,8 9.44444444,8 L5.55555556,8 Z M5.55555556,14 C4.69688889,14 4,13.104 4,12 C4,10.896 4.69688889,10 5.55555556,10 L9.44444444,10 C10.3031111,10 11,10.896 11,12 C11,13.104 10.3031111,14 9.44444444,14 L5.55555556,14 Z M5.55555556,20 C4.69688889,20 4,19.104 4,18 C4,16.896 4.69688889,16 5.55555556,16 L9.44444444,16 C10.3031111,16 11,16.896 11,18 C11,19.104 10.3031111,20 9.44444444,20 L5.55555556,20 Z M14.5555556,8 C13.6968889,8 13,7.104 13,6 C13,4.896 13.6968889,4 14.5555556,4 L18.4444444,4 C19.3031111,4 20,4.896 20,6 C20,7.104 19.3031111,8 18.4444444,8 L14.5555556,8 Z M14.5555556,14 C13.6968889,14 13,13.104 13,12 C13,10.896 13.6968889,10 14.5555556,10 L18.4444444,10 C19.3031111,10 20,10.896 20,12 C20,13.104 19.3031111,14 18.4444444,14 L14.5555556,14 Z M14.5555556,20 C13.6968889,20 13,19.104 13,18 C13,16.896 13.6968889,16 14.5555556,16 L18.4444444,16 C19.3031111,16 20,16.896 20,18 C20,19.104 19.3031111,20 18.4444444,20 L14.5555556,20 Z" id="Combined-Shape"></path>
            </g>
        </g>
    </g>
</svg>