<?xml version="1.0" encoding="UTF-8"?>
<svg width="14px" height="16px" viewBox="0 0 14 16" version="1.1" xmlns="http://www.w3.org/2000/svg" xmlns:xlink="http://www.w3.org/1999/xlink">
    <!-- Generator: Sketch 53.2 (72643) - https://sketchapp.com -->
    <title>Combined Shape</title>
    <desc>Created with Sketch.</desc>
    <g id="Channers-in-items-list" stroke="none" stroke-width="1" fill="none" fill-rule="evenodd">
        <g id="02-Admin-Departments" transform="translate(-18.000000, -69.000000)" fill="#fff">
            <path d="M19,69 L31,69 C31.5522847,69 32,69.4477153 32,70 L32,84 C32,84.5522847 31.5522847,85 31,85 L19,85 C18.4477153,85 18,84.5522847 18,84 L18,70 C18,69.4477153 18.4477153,69 19,69 Z M21,72 L21,74 L29,74 L29,72 L21,72 Z M21,76 L21,78 L29,78 L29,76 L21,76 Z M21,80 L21,82 L29,82 L29,80 L21,80 Z" id="Combined-Shape"></path>
        </g>
    </g>
</svg>