<?xml version="1.0" encoding="UTF-8"?>
<svg width="18px" height="18px" viewBox="0 0 18 18" version="1.1" xmlns="http://www.w3.org/2000/svg" xmlns:xlink="http://www.w3.org/1999/xlink">
    <!-- Generator: Sketch 53.2 (72643) - https://sketchapp.com -->
    <title>Shape</title>
    <desc>Created with Sketch.</desc>
    <g id="Channers-in-items-list" stroke="none" stroke-width="1" fill="none" fill-rule="evenodd">
        <g id="02-Admin-Departments" transform="translate(-18.000000, -153.000000)" fill="#fff" fill-rule="nonzero">
            <path d="M27,160.714286 C29.1342857,160.714286 30.8442857,158.991429 30.8442857,156.857143 C30.8442857,154.722857 29.1342857,153 27,153 C24.8657143,153 23.1428571,154.722857 23.1428571,156.857143 C23.1428571,158.991429 24.8657143,160.714286 27,160.714286 Z M27,163.285714 C29.9957143,163.285714 36,164.79 36,167.785714 L36,171 L18,171 L18,167.785714 C18,164.79 24.0042857,163.285714 27,163.285714 Z M28.9919423,166.978059 L28.9919423,168.027658 L33.0272944,168.027658 L33.0272944,166.978059 L28.9919423,166.978059 Z" id="Shape"></path>
        </g>
    </g>
</svg>